<svg width="402" height="874" viewBox="0 0 402 874" fill="none" xmlns="http://www.w3.org/2000/svg">
<rect width="402" height="874" fill="#FAFAF7"/>
<rect x="36" y="40" width="40" height="40" rx="8" fill="#F2EDE5"/>
<path fill-rule="evenodd" clip-rule="evenodd" d="M49.2929 53.2929C49.6834 52.9024 50.3166 52.9024 50.7071 53.2929L56 58.5858L61.2929 53.2929C61.6834 52.9024 62.3166 52.9024 62.7071 53.2929C63.0976 53.6834 63.0976 54.3166 62.7071 54.7071L57.4142 60L62.7071 65.2929C63.0976 65.6834 63.0976 66.3166 62.7071 66.7071C62.3166 67.0976 61.6834 67.0976 61.2929 66.7071L56 61.4142L50.7071 66.7071C50.3166 67.0976 49.6834 67.0976 49.2929 66.7071C48.9024 66.3166 48.9024 65.6834 49.2929 65.2929L54.5858 60L49.2929 54.7071C48.9024 54.3166 48.9024 53.6834 49.2929 53.2929Z" fill="#444440"/>
<rect x="41" y="778" width="320" height="64" rx="16" fill="#444440"/>
<path d="M187.28 808.34C187.053 808.033 186.76 807.793 186.4 807.62C186.04 807.433 185.633 807.34 185.18 807.34C184.94 807.34 184.693 807.373 184.44 807.44C184.187 807.507 183.96 807.613 183.76 807.76C183.56 807.893 183.393 808.067 183.26 808.28C183.14 808.493 183.08 808.753 183.08 809.06C183.08 809.367 183.133 809.62 183.24 809.82C183.36 810.007 183.52 810.173 183.72 810.32C183.92 810.453 184.147 810.567 184.4 810.66C184.667 810.753 184.953 810.847 185.26 810.94C185.62 811.06 185.987 811.187 186.36 811.32C186.733 811.453 187.067 811.633 187.36 811.86C187.667 812.087 187.913 812.373 188.1 812.72C188.3 813.053 188.4 813.487 188.4 814.02C188.4 814.567 188.293 815.047 188.08 815.46C187.88 815.86 187.607 816.193 187.26 816.46C186.927 816.727 186.54 816.92 186.1 817.04C185.673 817.173 185.227 817.24 184.76 817.24C184.093 817.24 183.447 817.107 182.82 816.84C182.193 816.573 181.687 816.187 181.3 815.68L182.42 814.74C182.647 815.127 182.967 815.44 183.38 815.68C183.807 815.907 184.273 816.02 184.78 816.02C185.033 816.02 185.287 815.987 185.54 815.92C185.807 815.84 186.047 815.727 186.26 815.58C186.473 815.42 186.647 815.227 186.78 815C186.913 814.76 186.98 814.48 186.98 814.16C186.98 813.827 186.907 813.553 186.76 813.34C186.627 813.113 186.44 812.927 186.2 812.78C185.973 812.633 185.707 812.513 185.4 812.42C185.093 812.313 184.773 812.207 184.44 812.1C184.093 811.993 183.753 811.873 183.42 811.74C183.087 811.593 182.787 811.407 182.52 811.18C182.267 810.953 182.06 810.673 181.9 810.34C181.74 810.007 181.66 809.6 181.66 809.12C181.66 808.6 181.767 808.153 181.98 807.78C182.193 807.393 182.467 807.08 182.8 806.84C183.147 806.6 183.533 806.427 183.96 806.32C184.387 806.2 184.82 806.14 185.26 806.14C185.887 806.14 186.467 806.253 187 806.48C187.533 806.707 187.96 807.007 188.28 807.38L187.28 808.34ZM191.104 817H189.624L194.204 806.38H195.504L200.064 817H198.484L197.384 814.34H192.224L191.104 817ZM192.724 813.12H196.884L194.824 808L192.724 813.12ZM204.796 815.18H204.836L208.076 806.38H209.616L205.476 817H204.136L199.996 806.38H201.536L204.796 815.18ZM212.977 815.74H218.557V817H211.577V806.38H218.337V807.62H212.977V810.88H218.017V812.1H212.977V815.74Z" fill="#FAFAF7"/>
<path d="M40.44 123.504H43.336C43.88 123.504 44.4187 123.589 44.952 123.76C45.496 123.92 45.9867 124.171 46.424 124.512C46.8613 124.853 47.2133 125.291 47.48 125.824C47.7573 126.357 47.896 126.997 47.896 127.744C47.896 128.469 47.7573 129.099 47.48 129.632C47.2133 130.165 46.8613 130.608 46.424 130.96C45.9867 131.312 45.496 131.573 44.952 131.744C44.4187 131.915 43.88 132 43.336 132H40.44V123.504ZM41.56 130.992H43.096C43.6293 130.992 44.1147 130.917 44.552 130.768C45 130.608 45.3787 130.389 45.688 130.112C46.008 129.835 46.2533 129.499 46.424 129.104C46.6053 128.699 46.696 128.245 46.696 127.744C46.696 127.232 46.6053 126.779 46.424 126.384C46.2533 125.979 46.008 125.637 45.688 125.36C45.3787 125.083 45 124.869 44.552 124.72C44.1147 124.571 43.6293 124.496 43.096 124.496H41.56V130.992ZM49.6631 132H48.4791L52.1431 123.504H53.1831L56.8311 132H55.5671L54.6871 129.872H50.5591L49.6631 132ZM50.9591 128.896H54.2871L52.6391 124.8L50.9591 128.896ZM60.5018 132H59.3818V124.496H56.6458V123.504H63.2698V124.496H60.5018V132ZM65.7094 130.992H70.1734V132H64.5894V123.504H69.9974V124.496H65.7094V127.104H69.7414V128.08H65.7094V130.992ZM75.7738 132H74.5898L78.2538 123.504H79.2938L82.9418 132H81.6778L80.7978 129.872H76.6698L75.7738 132ZM77.0698 128.896H80.3978L78.7498 124.8L77.0698 128.896ZM84.1606 123.504H87.0566C87.6006 123.504 88.1393 123.589 88.6726 123.76C89.2166 123.92 89.7073 124.171 90.1446 124.512C90.582 124.853 90.934 125.291 91.2006 125.824C91.478 126.357 91.6166 126.997 91.6166 127.744C91.6166 128.469 91.478 129.099 91.2006 129.632C90.934 130.165 90.582 130.608 90.1446 130.96C89.7073 131.312 89.2166 131.573 88.6726 131.744C88.1393 131.915 87.6006 132 87.0566 132H84.1606V123.504ZM85.2806 130.992H86.8166C87.35 130.992 87.8353 130.917 88.2726 130.768C88.7206 130.608 89.0993 130.389 89.4086 130.112C89.7286 129.835 89.974 129.499 90.1446 129.104C90.326 128.699 90.4166 128.245 90.4166 127.744C90.4166 127.232 90.326 126.779 90.1446 126.384C89.974 125.979 89.7286 125.637 89.4086 125.36C89.0993 125.083 88.7206 124.869 88.2726 124.72C87.8353 124.571 87.35 124.496 86.8166 124.496H85.2806V130.992ZM93.6375 123.504H96.5335C97.0775 123.504 97.6162 123.589 98.1495 123.76C98.6935 123.92 99.1842 124.171 99.6215 124.512C100.059 124.853 100.411 125.291 100.677 125.824C100.955 126.357 101.093 126.997 101.093 127.744C101.093 128.469 100.955 129.099 100.677 129.632C100.411 130.165 100.059 130.608 99.6215 130.96C99.1842 131.312 98.6935 131.573 98.1495 131.744C97.6162 131.915 97.0775 132 96.5335 132H93.6375V123.504ZM94.7575 130.992H96.2935C96.8268 130.992 97.3122 130.917 97.7495 130.768C98.1975 130.608 98.5762 130.389 98.8855 130.112C99.2055 129.835 99.4508 129.499 99.6215 129.104C99.8028 128.699 99.8935 128.245 99.8935 127.744C99.8935 127.232 99.8028 126.779 99.6215 126.384C99.4508 125.979 99.2055 125.637 98.8855 125.36C98.5762 125.083 98.1975 124.869 97.7495 124.72C97.3122 124.571 96.8268 124.496 96.2935 124.496H94.7575V130.992ZM104.234 130.992H108.698V132H103.114V123.504H108.522V124.496H104.234V127.104H108.266V128.08H104.234V130.992ZM110.779 123.504H113.675C114.219 123.504 114.757 123.589 115.291 123.76C115.835 123.92 116.325 124.171 116.763 124.512C117.2 124.853 117.552 125.291 117.819 125.824C118.096 126.357 118.235 126.997 118.235 127.744C118.235 128.469 118.096 129.099 117.819 129.632C117.552 130.165 117.2 130.608 116.763 130.96C116.325 131.312 115.835 131.573 115.291 131.744C114.757 131.915 114.219 132 113.675 132H110.779V123.504ZM111.899 130.992H113.435C113.968 130.992 114.453 130.917 114.891 130.768C115.339 130.608 115.717 130.389 116.027 130.112C116.347 129.835 116.592 129.499 116.763 129.104C116.944 128.699 117.035 128.245 117.035 127.744C117.035 127.232 116.944 126.779 116.763 126.384C116.592 125.979 116.347 125.637 116.027 125.36C115.717 125.083 115.339 124.869 114.891 124.72C114.453 124.571 113.968 124.496 113.435 124.496H111.899V130.992Z" fill="#444440"/>
<rect x="36.5" y="150.5" width="100" height="39" rx="15.5" stroke="#C9C3B7"/>
<path d="M56.048 175.5H54.928V167.996H52.192V167.004H58.816V167.996H56.048V175.5ZM60.4556 167.004H61.5756V170.604H66.2956V167.004H67.4156V175.5H66.2956V171.58H61.5756V175.5H60.4556V167.004ZM71.4194 175.5H70.2994V167.004H71.4194V175.5ZM78.2834 168.572C78.102 168.327 77.8674 168.135 77.5794 167.996C77.2914 167.847 76.966 167.772 76.6034 167.772C76.4114 167.772 76.214 167.799 76.0114 167.852C75.8087 167.905 75.6274 167.991 75.4674 168.108C75.3074 168.215 75.174 168.353 75.0674 168.524C74.9714 168.695 74.9234 168.903 74.9234 169.148C74.9234 169.393 74.966 169.596 75.0514 169.756C75.1474 169.905 75.2754 170.039 75.4354 170.156C75.5954 170.263 75.7767 170.353 75.9794 170.428C76.1927 170.503 76.422 170.577 76.6674 170.652C76.9554 170.748 77.2487 170.849 77.5474 170.956C77.846 171.063 78.1127 171.207 78.3474 171.388C78.5927 171.569 78.79 171.799 78.9394 172.076C79.0994 172.343 79.1794 172.689 79.1794 173.116C79.1794 173.553 79.094 173.937 78.9234 174.268C78.7634 174.588 78.5447 174.855 78.2674 175.068C78.0007 175.281 77.6914 175.436 77.3394 175.532C76.998 175.639 76.6407 175.692 76.2674 175.692C75.734 175.692 75.2167 175.585 74.7154 175.372C74.214 175.159 73.8087 174.849 73.4994 174.444L74.3954 173.692C74.5767 174.001 74.8327 174.252 75.1634 174.444C75.5047 174.625 75.878 174.716 76.2834 174.716C76.486 174.716 76.6887 174.689 76.8914 174.636C77.1047 174.572 77.2967 174.481 77.4674 174.364C77.638 174.236 77.7767 174.081 77.8834 173.9C77.99 173.708 78.0434 173.484 78.0434 173.228C78.0434 172.961 77.9847 172.743 77.8674 172.572C77.7607 172.391 77.6114 172.241 77.4194 172.124C77.238 172.007 77.0247 171.911 76.7794 171.836C76.534 171.751 76.278 171.665 76.0114 171.58C75.734 171.495 75.462 171.399 75.1954 171.292C74.9287 171.175 74.6887 171.025 74.4754 170.844C74.2727 170.663 74.1074 170.439 73.9794 170.172C73.8514 169.905 73.7874 169.58 73.7874 169.196C73.7874 168.78 73.8727 168.423 74.0434 168.124C74.214 167.815 74.4327 167.564 74.6994 167.372C74.9767 167.18 75.286 167.041 75.6274 166.956C75.9687 166.86 76.3154 166.812 76.6674 166.812C77.1687 166.812 77.6327 166.903 78.0594 167.084C78.486 167.265 78.8274 167.505 79.0834 167.804L78.2834 168.572ZM87.5345 173.868H87.5665L89.5665 167.004H90.8305L92.8305 173.868H92.8625L94.7665 167.004H95.9665L93.4705 175.5H92.2705L90.2065 168.588H90.1905L88.0945 175.5H86.9105L84.4145 167.004H85.6145L87.5345 173.868ZM98.8725 174.492H103.337V175.5H97.7525V167.004H103.161V167.996H98.8725V170.604H102.905V171.58H98.8725V174.492ZM106.857 174.492H111.321V175.5H105.737V167.004H111.145V167.996H106.857V170.604H110.889V171.58H106.857V174.492ZM114.841 170.764H114.873L118.697 167.004H120.281L116.121 170.892L120.521 175.5H118.889L114.873 171.084H114.841V175.5H113.721V167.004H114.841V170.764Z" fill="#444440"/>
<rect x="153.5" y="150.5" width="113" height="39" rx="15.5" stroke="#C9C3B7"/>
<path d="M173.048 175.5H171.928V167.996H169.192V167.004H175.816V167.996H173.048V175.5ZM177.456 167.004H178.576V170.604H183.296V167.004H184.416V175.5H183.296V171.58H178.576V175.5H177.456V167.004ZM188.419 175.5H187.299V167.004H188.419V175.5ZM195.283 168.572C195.102 168.327 194.867 168.135 194.579 167.996C194.291 167.847 193.966 167.772 193.603 167.772C193.411 167.772 193.214 167.799 193.011 167.852C192.809 167.905 192.627 167.991 192.467 168.108C192.307 168.215 192.174 168.353 192.067 168.524C191.971 168.695 191.923 168.903 191.923 169.148C191.923 169.393 191.966 169.596 192.051 169.756C192.147 169.905 192.275 170.039 192.435 170.156C192.595 170.263 192.777 170.353 192.979 170.428C193.193 170.503 193.422 170.577 193.667 170.652C193.955 170.748 194.249 170.849 194.547 170.956C194.846 171.063 195.113 171.207 195.347 171.388C195.593 171.569 195.79 171.799 195.939 172.076C196.099 172.343 196.179 172.689 196.179 173.116C196.179 173.553 196.094 173.937 195.923 174.268C195.763 174.588 195.545 174.855 195.267 175.068C195.001 175.281 194.691 175.436 194.339 175.532C193.998 175.639 193.641 175.692 193.267 175.692C192.734 175.692 192.217 175.585 191.715 175.372C191.214 175.159 190.809 174.849 190.499 174.444L191.395 173.692C191.577 174.001 191.833 174.252 192.163 174.444C192.505 174.625 192.878 174.716 193.283 174.716C193.486 174.716 193.689 174.689 193.891 174.636C194.105 174.572 194.297 174.481 194.467 174.364C194.638 174.236 194.777 174.081 194.883 173.9C194.99 173.708 195.043 173.484 195.043 173.228C195.043 172.961 194.985 172.743 194.867 172.572C194.761 172.391 194.611 172.241 194.419 172.124C194.238 172.007 194.025 171.911 193.779 171.836C193.534 171.751 193.278 171.665 193.011 171.58C192.734 171.495 192.462 171.399 192.195 171.292C191.929 171.175 191.689 171.025 191.475 170.844C191.273 170.663 191.107 170.439 190.979 170.172C190.851 169.905 190.787 169.58 190.787 169.196C190.787 168.78 190.873 168.423 191.043 168.124C191.214 167.815 191.433 167.564 191.699 167.372C191.977 167.18 192.286 167.041 192.627 166.956C192.969 166.86 193.315 166.812 193.667 166.812C194.169 166.812 194.633 166.903 195.059 167.084C195.486 167.265 195.827 167.505 196.083 167.804L195.283 168.572ZM206.871 173.628H206.903L209.463 167.004H211.207V175.5H210.087V168.348H210.055L207.191 175.5H206.503L203.639 168.348H203.623V175.5H202.503V167.004H204.263L206.871 173.628ZM222.497 171.228C222.497 171.879 222.379 172.476 222.145 173.02C221.921 173.564 221.606 174.033 221.201 174.428C220.806 174.823 220.331 175.132 219.777 175.356C219.233 175.58 218.641 175.692 218.001 175.692C217.361 175.692 216.769 175.58 216.225 175.356C215.681 175.132 215.206 174.823 214.801 174.428C214.406 174.033 214.097 173.564 213.873 173.02C213.649 172.476 213.537 171.879 213.537 171.228C213.537 170.577 213.649 169.98 213.873 169.436C214.097 168.892 214.406 168.428 214.801 168.044C215.206 167.649 215.681 167.345 216.225 167.132C216.769 166.919 217.361 166.812 218.001 166.812C218.641 166.812 219.233 166.919 219.777 167.132C220.331 167.345 220.806 167.649 221.201 168.044C221.606 168.428 221.921 168.892 222.145 169.436C222.379 169.98 222.497 170.577 222.497 171.228ZM221.281 171.228C221.281 170.759 221.201 170.316 221.041 169.9C220.891 169.484 220.673 169.121 220.385 168.812C220.107 168.492 219.766 168.241 219.361 168.06C218.955 167.879 218.502 167.788 218.001 167.788C217.499 167.788 217.046 167.879 216.641 168.06C216.246 168.241 215.905 168.492 215.617 168.812C215.339 169.121 215.126 169.484 214.977 169.9C214.827 170.316 214.753 170.759 214.753 171.228C214.753 171.697 214.827 172.145 214.977 172.572C215.137 172.988 215.355 173.356 215.633 173.676C215.91 173.985 216.246 174.231 216.641 174.412C217.046 174.593 217.499 174.684 218.001 174.684C218.502 174.684 218.955 174.593 219.361 174.412C219.766 174.231 220.107 173.985 220.385 173.676C220.673 173.356 220.891 172.988 221.041 172.572C221.201 172.145 221.281 171.697 221.281 171.228ZM230.607 173.868H230.639V167.004H231.759V175.5H230.351L225.967 168.492H225.951V175.5H224.831V167.004H226.287L230.607 173.868ZM237.251 175.5H236.131V167.996H233.395V167.004H240.019V167.996H237.251V175.5ZM241.659 167.004H242.779V170.604H247.499V167.004H248.619V175.5H247.499V171.58H242.779V175.5H241.659V167.004Z" fill="#444440"/>
<rect x="36.5" y="202.5" width="95" height="39" rx="15.5" stroke="#C9C3B7"/>
<path d="M56.048 227.5H54.928V219.996H52.192V219.004H58.816V219.996H56.048V227.5ZM60.4556 219.004H61.5756V222.604H66.2956V219.004H67.4156V227.5H66.2956V223.58H61.5756V227.5H60.4556V219.004ZM71.4194 227.5H70.2994V219.004H71.4194V227.5ZM78.2834 220.572C78.102 220.327 77.8674 220.135 77.5794 219.996C77.2914 219.847 76.966 219.772 76.6034 219.772C76.4114 219.772 76.214 219.799 76.0114 219.852C75.8087 219.905 75.6274 219.991 75.4674 220.108C75.3074 220.215 75.174 220.353 75.0674 220.524C74.9714 220.695 74.9234 220.903 74.9234 221.148C74.9234 221.393 74.966 221.596 75.0514 221.756C75.1474 221.905 75.2754 222.039 75.4354 222.156C75.5954 222.263 75.7767 222.353 75.9794 222.428C76.1927 222.503 76.422 222.577 76.6674 222.652C76.9554 222.748 77.2487 222.849 77.5474 222.956C77.846 223.063 78.1127 223.207 78.3474 223.388C78.5927 223.569 78.79 223.799 78.9394 224.076C79.0994 224.343 79.1794 224.689 79.1794 225.116C79.1794 225.553 79.094 225.937 78.9234 226.268C78.7634 226.588 78.5447 226.855 78.2674 227.068C78.0007 227.281 77.6914 227.436 77.3394 227.532C76.998 227.639 76.6407 227.692 76.2674 227.692C75.734 227.692 75.2167 227.585 74.7154 227.372C74.214 227.159 73.8087 226.849 73.4994 226.444L74.3954 225.692C74.5767 226.001 74.8327 226.252 75.1634 226.444C75.5047 226.625 75.878 226.716 76.2834 226.716C76.486 226.716 76.6887 226.689 76.8914 226.636C77.1047 226.572 77.2967 226.481 77.4674 226.364C77.638 226.236 77.7767 226.081 77.8834 225.9C77.99 225.708 78.0434 225.484 78.0434 225.228C78.0434 224.961 77.9847 224.743 77.8674 224.572C77.7607 224.391 77.6114 224.241 77.4194 224.124C77.238 224.007 77.0247 223.911 76.7794 223.836C76.534 223.751 76.278 223.665 76.0114 223.58C75.734 223.495 75.462 223.399 75.1954 223.292C74.9287 223.175 74.6887 223.025 74.4754 222.844C74.2727 222.663 74.1074 222.439 73.9794 222.172C73.8514 221.905 73.7874 221.58 73.7874 221.196C73.7874 220.78 73.8727 220.423 74.0434 220.124C74.214 219.815 74.4327 219.564 74.6994 219.372C74.9767 219.18 75.286 219.041 75.6274 218.956C75.9687 218.86 76.3154 218.812 76.6674 218.812C77.1687 218.812 77.6327 218.903 78.0594 219.084C78.486 219.265 78.8274 219.505 79.0834 219.804L78.2834 220.572ZM88.3505 227.5H87.2305V223.82L84.0625 219.004H85.4065L87.8065 222.892L90.2065 219.004H91.5505L88.3505 223.82V227.5ZM94.1069 226.492H98.5709V227.5H92.9869V219.004H98.3949V219.996H94.1069V222.604H98.1389V223.58H94.1069V226.492ZM100.718 227.5H99.5335L103.198 219.004H104.238L107.885 227.5H106.622L105.742 225.372H101.614L100.718 227.5ZM102.014 224.396H105.342L103.694 220.3L102.014 224.396ZM110.544 227.5H109.424V219.004H112.112C112.528 219.004 112.918 219.047 113.28 219.132C113.643 219.217 113.958 219.351 114.224 219.532C114.502 219.713 114.715 219.953 114.864 220.252C115.024 220.551 115.104 220.913 115.104 221.34C115.104 221.969 114.907 222.476 114.512 222.86C114.128 223.233 113.632 223.468 113.024 223.564L115.408 227.5H114.048L111.84 223.708H110.544V227.5ZM110.544 222.732H111.936C112.523 222.732 113.008 222.631 113.392 222.428C113.776 222.215 113.968 221.852 113.968 221.34C113.968 221.084 113.915 220.871 113.808 220.7C113.712 220.519 113.574 220.38 113.392 220.284C113.222 220.177 113.014 220.103 112.768 220.06C112.534 220.017 112.283 219.996 112.016 219.996H110.544V222.732Z" fill="#444440"/>
<rect x="148.5" y="202.5" width="75" height="39" rx="15.5" stroke="#C9C3B7"/>
<path d="M173.856 223.228C173.856 223.879 173.739 224.476 173.504 225.02C173.28 225.564 172.965 226.033 172.56 226.428C172.165 226.823 171.691 227.132 171.136 227.356C170.592 227.58 170 227.692 169.36 227.692C168.72 227.692 168.128 227.58 167.584 227.356C167.04 227.132 166.565 226.823 166.16 226.428C165.765 226.033 165.456 225.564 165.232 225.02C165.008 224.476 164.896 223.879 164.896 223.228C164.896 222.577 165.008 221.98 165.232 221.436C165.456 220.892 165.765 220.428 166.16 220.044C166.565 219.649 167.04 219.345 167.584 219.132C168.128 218.919 168.72 218.812 169.36 218.812C170 218.812 170.592 218.919 171.136 219.132C171.691 219.345 172.165 219.649 172.56 220.044C172.965 220.428 173.28 220.892 173.504 221.436C173.739 221.98 173.856 222.577 173.856 223.228ZM172.64 223.228C172.64 222.759 172.56 222.316 172.4 221.9C172.251 221.484 172.032 221.121 171.744 220.812C171.467 220.492 171.125 220.241 170.72 220.06C170.315 219.879 169.861 219.788 169.36 219.788C168.859 219.788 168.405 219.879 168 220.06C167.605 220.241 167.264 220.492 166.976 220.812C166.699 221.121 166.485 221.484 166.336 221.9C166.187 222.316 166.112 222.759 166.112 223.228C166.112 223.697 166.187 224.145 166.336 224.572C166.496 224.988 166.715 225.356 166.992 225.676C167.269 225.985 167.605 226.231 168 226.412C168.405 226.593 168.859 226.684 169.36 226.684C169.861 226.684 170.315 226.593 170.72 226.412C171.125 226.231 171.467 225.985 171.744 225.676C172.032 225.356 172.251 224.988 172.4 224.572C172.56 224.145 172.64 223.697 172.64 223.228ZM177.31 226.492H181.134V227.5H176.19V219.004H177.31V226.492ZM182.924 219.004H185.82C186.364 219.004 186.903 219.089 187.436 219.26C187.98 219.42 188.471 219.671 188.908 220.012C189.346 220.353 189.698 220.791 189.964 221.324C190.242 221.857 190.38 222.497 190.38 223.244C190.38 223.969 190.242 224.599 189.964 225.132C189.698 225.665 189.346 226.108 188.908 226.46C188.471 226.812 187.98 227.073 187.436 227.244C186.903 227.415 186.364 227.5 185.82 227.5H182.924V219.004ZM184.044 226.492H185.58C186.114 226.492 186.599 226.417 187.036 226.268C187.484 226.108 187.863 225.889 188.172 225.612C188.492 225.335 188.738 224.999 188.908 224.604C189.09 224.199 189.18 223.745 189.18 223.244C189.18 222.732 189.09 222.279 188.908 221.884C188.738 221.479 188.492 221.137 188.172 220.86C187.863 220.583 187.484 220.369 187.036 220.22C186.599 220.071 186.114 219.996 185.58 219.996H184.044V226.492ZM193.841 226.492H198.305V227.5H192.721V219.004H198.129V219.996H193.841V222.604H197.873V223.58H193.841V226.492ZM201.826 227.5H200.706V219.004H203.394C203.81 219.004 204.199 219.047 204.562 219.132C204.924 219.217 205.239 219.351 205.506 219.532C205.783 219.713 205.996 219.953 206.146 220.252C206.306 220.551 206.386 220.913 206.386 221.34C206.386 221.969 206.188 222.476 205.794 222.86C205.41 223.233 204.914 223.468 204.306 223.564L206.69 227.5H205.33L203.122 223.708H201.826V227.5ZM201.826 222.732H203.218C203.804 222.732 204.29 222.631 204.674 222.428C205.058 222.215 205.25 221.852 205.25 221.34C205.25 221.084 205.196 220.871 205.09 220.7C204.994 220.519 204.855 220.38 204.674 220.284C204.503 220.177 204.295 220.103 204.05 220.06C203.815 220.017 203.564 219.996 203.298 219.996H201.826V222.732Z" fill="#444440"/>
<path d="M187.232 50.416V49.268H201.176L201.372 54.224H199.776L199.16 50.668H192.58C192.561 51.8627 192.543 53.0573 192.524 54.252C192.524 55.4467 192.524 56.6227 192.524 57.78H196.864L197.256 55.12H198.544V62.008H197.256L196.864 59.096H192.524C192.524 60.4773 192.524 61.7747 192.524 62.988C192.543 64.2013 192.561 65.3867 192.58 66.544L195.184 66.852V68H187.232V66.852L189.808 66.544C189.845 65.368 189.864 64.1733 189.864 62.96C189.864 61.7467 189.864 60.5333 189.864 59.32V57.948C189.864 56.7347 189.864 55.5307 189.864 54.336C189.864 53.1227 189.845 51.9187 189.808 50.724L187.232 50.416ZM202.334 68V66.992L204.434 66.6C204.453 65.8907 204.462 65.1253 204.462 64.304C204.481 63.464 204.49 62.736 204.49 62.12V60.804C204.49 60.0387 204.481 59.404 204.462 58.9C204.462 58.3773 204.443 57.836 204.406 57.276L202.166 57.024V56.044L206.478 54.336L206.898 54.616L206.814 58.424V62.12C206.814 62.736 206.814 63.464 206.814 64.304C206.833 65.1253 206.851 65.8907 206.87 66.6L208.83 66.992V68H202.334ZM205.638 51.256C205.115 51.256 204.667 51.088 204.294 50.752C203.939 50.416 203.762 49.9867 203.762 49.464C203.762 48.9227 203.939 48.4933 204.294 48.176C204.667 47.84 205.115 47.672 205.638 47.672C206.161 47.672 206.599 47.84 206.954 48.176C207.327 48.4933 207.514 48.9227 207.514 49.464C207.514 49.9867 207.327 50.416 206.954 50.752C206.599 51.088 206.161 51.256 205.638 51.256ZM209.834 68V66.992L212.074 66.6C212.093 65.8347 212.102 65.088 212.102 64.36C212.121 63.6133 212.13 62.8667 212.13 62.12V49.828L209.834 49.548V48.568L214.202 47.308L214.594 47.532L214.482 51.508V62.12C214.482 62.8667 214.482 63.6133 214.482 64.36C214.501 65.1067 214.519 65.8533 214.538 66.6L216.778 66.992V68H209.834ZM222.654 68.364C221.683 68.364 220.908 68.1027 220.33 67.58C219.751 67.0573 219.462 66.2547 219.462 65.172C219.462 64.8173 219.462 64.472 219.462 64.136C219.48 63.7813 219.49 63.3333 219.49 62.792V56.184H217.166V54.952L219.658 54.644L220.386 50.892H222.066L221.898 54.7H225.678V56.184H221.87V64.864C221.87 65.5733 222.01 66.096 222.29 66.432C222.57 66.7493 222.943 66.908 223.41 66.908C223.727 66.908 224.026 66.8427 224.306 66.712C224.604 66.5813 224.931 66.3947 225.286 66.152L225.958 66.88C225.192 67.8693 224.091 68.364 222.654 68.364ZM232.991 55.624C232.469 55.624 231.937 55.7733 231.395 56.072C230.873 56.3707 230.415 56.8467 230.023 57.5C229.65 58.1533 229.407 59.0213 229.295 60.104H234.391C235.063 60.104 235.502 59.964 235.707 59.684C235.931 59.404 236.043 59.0587 236.043 58.648C236.043 58.1067 235.903 57.612 235.623 57.164C235.362 56.6973 234.998 56.324 234.531 56.044C234.083 55.764 233.57 55.624 232.991 55.624ZM232.963 68.364C231.078 68.364 229.566 67.7573 228.427 66.544C227.289 65.312 226.719 63.6227 226.719 61.476C226.719 60.0387 227.009 58.788 227.587 57.724C228.185 56.66 228.969 55.8293 229.939 55.232C230.929 54.6347 232.002 54.336 233.159 54.336C234.13 54.336 235.007 54.5507 235.791 54.98C236.575 55.4093 237.201 56.0253 237.667 56.828C238.134 57.612 238.367 58.5733 238.367 59.712C238.367 60.0293 238.349 60.328 238.311 60.608C238.274 60.8693 238.227 61.0933 238.171 61.28H229.239C229.277 62.9973 229.706 64.304 230.527 65.2C231.349 66.096 232.431 66.544 233.775 66.544C234.671 66.544 235.418 66.3667 236.015 66.012C236.613 65.6387 237.163 65.1627 237.667 64.584L238.339 65.116C237.817 66.1053 237.107 66.8987 236.211 67.496C235.315 68.0747 234.233 68.364 232.963 68.364ZM240.349 68V66.992L242.365 66.628C242.383 65.9187 242.393 65.1533 242.393 64.332C242.411 63.492 242.421 62.7547 242.421 62.12V60.776C242.421 60.0107 242.411 59.376 242.393 58.872C242.393 58.368 242.374 57.836 242.337 57.276L240.125 57.024V56.044L244.045 54.336L244.465 54.616L244.773 57.92C245.239 56.8 245.837 55.9227 246.565 55.288C247.311 54.6533 248.058 54.336 248.805 54.336C249.234 54.336 249.635 54.4293 250.009 54.616C250.382 54.8027 250.653 55.0547 250.821 55.372C250.821 56.7347 250.27 57.416 249.169 57.416C248.851 57.416 248.553 57.36 248.273 57.248C247.993 57.1173 247.722 56.94 247.461 56.716L247.125 56.408C246.565 56.8187 246.098 57.3227 245.725 57.92C245.351 58.5173 245.043 59.2173 244.801 60.02V62.12C244.801 62.736 244.801 63.4547 244.801 64.276C244.819 65.0973 244.838 65.8627 244.857 66.572L247.153 66.992V68H240.349Z" fill="#444440"/>
<path d="M165.4 57.3262L173.409 49.3174L174.683 50.5908L166.674 58.5996H178V60.4004H166.674L174.683 68.4092L173.409 69.6826L165.4 61.6738V73H163.6V61.6738L155.591 69.6826L154.317 68.4092L162.326 60.4004H151V58.5996H162.326L154.317 50.5908L155.591 49.3174L163.6 57.3262V46H165.4V57.3262Z" fill="#444440"/>
<path d="M38.56 282H37.44V273.504H42.704V274.496H38.56V277.184H42.448V278.16H38.56V282ZM45.74 282H44.62V273.504H45.74V282ZM49.42 280.992H53.244V282H48.3V273.504H49.42V280.992ZM56.838 282H55.718V274.496H52.982V273.504H59.606V274.496H56.838V282ZM62.0456 280.992H66.5096V282H60.9256V273.504H66.3336V274.496H62.0456V277.104H66.0776V278.08H62.0456V280.992ZM69.71 282H68.59V273.504H71.278C71.694 273.504 72.0833 273.547 72.446 273.632C72.8087 273.717 73.1233 273.851 73.39 274.032C73.6673 274.213 73.8807 274.453 74.03 274.752C74.19 275.051 74.27 275.413 74.27 275.84C74.27 276.469 74.0727 276.976 73.678 277.36C73.294 277.733 72.798 277.968 72.19 278.064L74.574 282H73.214L71.006 278.208H69.71V282ZM69.71 277.232H71.102C71.6887 277.232 72.174 277.131 72.558 276.928C72.942 276.715 73.134 276.352 73.134 275.84C73.134 275.584 73.0807 275.371 72.974 275.2C72.878 275.019 72.7393 274.88 72.558 274.784C72.3873 274.677 72.1793 274.603 71.934 274.56C71.6993 274.517 71.4487 274.496 71.182 274.496H69.71V277.232ZM79.9031 273.504H82.7671C83.0871 273.504 83.4018 273.541 83.7111 273.616C84.0311 273.68 84.3191 273.797 84.5751 273.968C84.8311 274.128 85.0338 274.347 85.1831 274.624C85.3431 274.901 85.4231 275.243 85.4231 275.648C85.4231 276.117 85.3058 276.512 85.0711 276.832C84.8365 277.141 84.5165 277.371 84.1111 277.52V277.552C84.6231 277.659 85.0391 277.883 85.3591 278.224C85.6791 278.555 85.8391 279.013 85.8391 279.6C85.8391 279.995 85.7538 280.341 85.5831 280.64C85.4231 280.939 85.1991 281.189 84.9111 281.392C84.6231 281.595 84.2818 281.749 83.8871 281.856C83.5031 281.952 83.0871 282 82.6391 282H79.9031V273.504ZM81.0231 277.104H82.6071C83.0658 277.104 83.4605 277.003 83.7911 276.8C84.1325 276.587 84.3031 276.24 84.3031 275.76C84.3031 275.291 84.1271 274.965 83.7751 274.784C83.4338 274.592 82.9805 274.496 82.4151 274.496H81.0231V277.104ZM81.0231 280.992H82.5431C82.7991 280.992 83.0551 280.971 83.3111 280.928C83.5671 280.885 83.7965 280.811 83.9991 280.704C84.2018 280.587 84.3671 280.437 84.4951 280.256C84.6231 280.064 84.6871 279.824 84.6871 279.536C84.6871 279.024 84.5111 278.656 84.1591 278.432C83.8178 278.197 83.3165 278.08 82.6551 278.08H81.0231V280.992ZM90.5874 282H89.4674V278.32L86.2994 273.504H87.6434L90.0434 277.392L92.4434 273.504H93.7874L90.5874 278.32V282ZM102.952 280.128H102.984L105.544 273.504H107.288V282H106.168V274.848H106.136L103.272 282H102.584L99.7197 274.848H99.7037V282H98.5837V273.504H100.344L102.952 280.128ZM118.258 277.728C118.258 278.379 118.141 278.976 117.906 279.52C117.682 280.064 117.367 280.533 116.962 280.928C116.567 281.323 116.093 281.632 115.538 281.856C114.994 282.08 114.402 282.192 113.762 282.192C113.122 282.192 112.53 282.08 111.986 281.856C111.442 281.632 110.967 281.323 110.562 280.928C110.167 280.533 109.858 280.064 109.634 279.52C109.41 278.976 109.298 278.379 109.298 277.728C109.298 277.077 109.41 276.48 109.634 275.936C109.858 275.392 110.167 274.928 110.562 274.544C110.967 274.149 111.442 273.845 111.986 273.632C112.53 273.419 113.122 273.312 113.762 273.312C114.402 273.312 114.994 273.419 115.538 273.632C116.093 273.845 116.567 274.149 116.962 274.544C117.367 274.928 117.682 275.392 117.906 275.936C118.141 276.48 118.258 277.077 118.258 277.728ZM117.042 277.728C117.042 277.259 116.962 276.816 116.802 276.4C116.653 275.984 116.434 275.621 116.146 275.312C115.869 274.992 115.527 274.741 115.122 274.56C114.717 274.379 114.263 274.288 113.762 274.288C113.261 274.288 112.807 274.379 112.402 274.56C112.007 274.741 111.666 274.992 111.378 275.312C111.101 275.621 110.887 275.984 110.738 276.4C110.589 276.816 110.514 277.259 110.514 277.728C110.514 278.197 110.589 278.645 110.738 279.072C110.898 279.488 111.117 279.856 111.394 280.176C111.671 280.485 112.007 280.731 112.402 280.912C112.807 281.093 113.261 281.184 113.762 281.184C114.263 281.184 114.717 281.093 115.122 280.912C115.527 280.731 115.869 280.485 116.146 280.176C116.434 279.856 116.653 279.488 116.802 279.072C116.962 278.645 117.042 278.197 117.042 277.728ZM126.048 280.368H126.08V273.504H127.2V282H125.792L121.408 274.992H121.392V282H120.272V273.504H121.728L126.048 280.368ZM132.372 282H131.252V274.496H128.516V273.504H135.14V274.496H132.372V282ZM136.46 273.504H137.58V277.104H142.3V273.504H143.42V282H142.3V278.08H137.58V282H136.46V273.504Z" fill="#444440"/>
<rect x="36.5" y="298.5" width="201" height="47" rx="15.5" stroke="#C9C3B7"/>
<path d="M106.308 325.628H106.34L108.9 319.004H110.644V327.5H109.524V320.348H109.492L106.628 327.5H105.94L103.076 320.348H103.06V327.5H101.94V319.004H103.7L106.308 325.628ZM121.934 323.228C121.934 323.879 121.817 324.476 121.582 325.02C121.358 325.564 121.043 326.033 120.638 326.428C120.243 326.823 119.769 327.132 119.214 327.356C118.67 327.58 118.078 327.692 117.438 327.692C116.798 327.692 116.206 327.58 115.662 327.356C115.118 327.132 114.643 326.823 114.238 326.428C113.843 326.033 113.534 325.564 113.31 325.02C113.086 324.476 112.974 323.879 112.974 323.228C112.974 322.577 113.086 321.98 113.31 321.436C113.534 320.892 113.843 320.428 114.238 320.044C114.643 319.649 115.118 319.345 115.662 319.132C116.206 318.919 116.798 318.812 117.438 318.812C118.078 318.812 118.67 318.919 119.214 319.132C119.769 319.345 120.243 319.649 120.638 320.044C121.043 320.428 121.358 320.892 121.582 321.436C121.817 321.98 121.934 322.577 121.934 323.228ZM120.718 323.228C120.718 322.759 120.638 322.316 120.478 321.9C120.329 321.484 120.11 321.121 119.822 320.812C119.545 320.492 119.203 320.241 118.798 320.06C118.393 319.879 117.939 319.788 117.438 319.788C116.937 319.788 116.483 319.879 116.078 320.06C115.683 320.241 115.342 320.492 115.054 320.812C114.777 321.121 114.563 321.484 114.414 321.9C114.265 322.316 114.19 322.759 114.19 323.228C114.19 323.697 114.265 324.145 114.414 324.572C114.574 324.988 114.793 325.356 115.07 325.676C115.347 325.985 115.683 326.231 116.078 326.412C116.483 326.593 116.937 326.684 117.438 326.684C117.939 326.684 118.393 326.593 118.798 326.412C119.203 326.231 119.545 325.985 119.822 325.676C120.11 325.356 120.329 324.988 120.478 324.572C120.638 324.145 120.718 323.697 120.718 323.228ZM130.044 325.868H130.076V319.004H131.196V327.5H129.788L125.404 320.492H125.388V327.5H124.268V319.004H125.724L130.044 325.868ZM136.689 327.5H135.569V319.996H132.833V319.004H139.457V319.996H136.689V327.5ZM141.096 319.004H142.216V322.604H146.936V319.004H148.056V327.5H146.936V323.58H142.216V327.5H141.096V319.004Z" fill="#444440"/>
<path fill-rule="evenodd" clip-rule="evenodd" d="M164.146 320.646C164.342 320.451 164.658 320.451 164.854 320.646L167.5 323.293L170.146 320.646C170.342 320.451 170.658 320.451 170.854 320.646C171.049 320.842 171.049 321.158 170.854 321.354L167.942 324.265C167.698 324.509 167.302 324.509 167.058 324.265L164.146 321.354C163.951 321.158 163.951 320.842 164.146 320.646Z" fill="#444440"/>
<rect x="254.5" y="298.5" width="107" height="47" rx="15.5" stroke="#C9C3B7"/>
<path d="M284.288 327.5H283.168V323.82L280 319.004H281.344L283.744 322.892L286.144 319.004H287.488L284.288 323.82V327.5ZM290.044 326.492H294.508V327.5H288.924V319.004H294.332V319.996H290.044V322.604H294.076V323.58H290.044V326.492ZM296.655 327.5H295.471L299.135 319.004H300.175L303.823 327.5H302.559L301.679 325.372H297.551L296.655 327.5ZM297.951 324.396H301.279L299.631 320.3L297.951 324.396ZM306.482 327.5H305.362V319.004H308.05C308.466 319.004 308.855 319.047 309.218 319.132C309.581 319.217 309.895 319.351 310.162 319.532C310.439 319.713 310.653 319.953 310.802 320.252C310.962 320.551 311.042 320.913 311.042 321.34C311.042 321.969 310.845 322.476 310.45 322.86C310.066 323.233 309.57 323.468 308.962 323.564L311.346 327.5H309.986L307.778 323.708H306.482V327.5ZM306.482 322.732H307.874C308.461 322.732 308.946 322.631 309.33 322.428C309.714 322.215 309.906 321.852 309.906 321.34C309.906 321.084 309.853 320.871 309.746 320.7C309.65 320.519 309.511 320.38 309.33 320.284C309.159 320.177 308.951 320.103 308.706 320.06C308.471 320.017 308.221 319.996 307.954 319.996H306.482V322.732Z" fill="#444440"/>
<path fill-rule="evenodd" clip-rule="evenodd" d="M326.646 320.646C326.842 320.451 327.158 320.451 327.354 320.646L330 323.293L332.646 320.646C332.842 320.451 333.158 320.451 333.354 320.646C333.549 320.842 333.549 321.158 333.354 321.354L330.442 324.265C330.198 324.509 329.802 324.509 329.558 324.265L326.646 321.354C326.451 321.158 326.451 320.842 326.646 320.646Z" fill="#444440"/>
</svg>
